<svg id="Layer_35" enable-background="new 0 0 64 64" height="512" viewBox="0 0 64 64" width="512" xmlns="http://www.w3.org/2000/svg"><path d="m28 11v2c0 .55-.45 1-1 1h-3-4-8-4-3c-.55 0-1-.45-1-1v-2c0-.55.45-1 1-1h22c.55 0 1 .45 1 1z" fill="#aab2bd"/><path d="m8 14h4v8h-4z" fill="#b27946"/><path d="m20 14h4v8h-4z" fill="#b27946"/><path d="m6 24c0-1.1.9-2 2-2h4 8 4c1.1 0 2 .9 2 2v2h-20z" fill="#ccd1d9"/><path d="m26 54h4c0 2.21-1.79 4-4 4h-1-18-1c-2.21 0-4-1.79-4-4h4 4 4 4 4z" fill="#ccd1d9"/><path d="m26 26h-20c-1.1 0-2.1.45-2.83 1.17-.72.73-1.17 1.73-1.17 2.83v24h28v-24c0-2.21-1.79-4-4-4z" fill="#cf9e76"/><g fill="#fcd770"><path d="m26 32v2c0 1.1-.9 2-2 2h-16c-1.1 0-2-.9-2-2v-2c0-1.1.9-2 2-2h16c1.1 0 2 .9 2 2z"/><path d="m26 42v12h-4v-12c0-1.1.9-2 2-2 .55 0 1.05.22 1.41.59.37.36.59.86.59 1.41z"/><path d="m18 42v12h-4v-12c0-1.1.9-2 2-2 .55 0 1.05.22 1.41.59.37.36.59.86.59 1.41z"/><path d="m10 42v12h-4v-12c0-1.1.9-2 2-2 .55 0 1.05.22 1.41.59.37.36.59.86.59 1.41z"/></g><circle cx="7" cy="60" fill="#838f9b" r="2"/><circle cx="25" cy="60" fill="#838f9b" r="2"/><path d="m56 40v18c0 1.1-.45 2.1-1.17 2.83-.73.72-1.73 1.17-2.83 1.17-2.21 0-4-1.79-4-4v-22h8z" fill="#cf9e76"/><path d="m48 36v22c0 2.21-1.79 4-4 4-1.1 0-2.1-.45-2.83-1.17-.72-.73-1.17-1.73-1.17-2.83v-18-4z" fill="#cf9e76"/><path d="m40 36v4h-2c-2.21 0-4-1.79-4-4v-6c0-1.83.35-3.58 1-5.18 0-.01 0-.01 0-.01.71-1.78 1.77-3.38 3.1-4.71.29-.29.59-.56.9-.81v9.71c0 .74.4 1.38 1 1.73z" fill="#b4dd7f"/><path d="m62 30v6c0 2.21-1.79 4-4 4h-2v-4-5.27c.6-.35 1-.99 1-1.73v-9.71c1.75 1.46 3.14 3.35 4 5.52v.01c.65 1.6 1 3.35 1 5.18z" fill="#b4dd7f"/><path d="m51 20.64v8.36c0 1.1.9 2 2 2h2c.36 0 .71-.1 1-.27v5.27h-8-8v-5.27c.29.17.64.27 1 .27h2c1.1 0 2-.9 2-2v-8.36c.73.83 1.8 1.36 3 1.36 1.1 0 2.1-.45 2.83-1.17.06-.06.12-.12.17-.19z" fill="#b4dd7f"/><path d="m45 20.64v8.36c0 1.1-.9 2-2 2h-2c-.36 0-.71-.1-1-.27-.6-.35-1-.99-1-1.73v-9.71-.01c1.45-1.22 3.14-2.14 5-2.7v1.42c0 1.01.38 1.93 1 2.64z" fill="#969faa"/><path d="m57 19.29v9.71c0 .74-.4 1.38-1 1.73-.29.17-.64.27-1 .27h-2c-1.1 0-2-.9-2-2v-8.36c.62-.71 1-1.63 1-2.64v-1.42c1.86.56 3.55 1.48 5 2.71z" fill="#969faa"/><path d="m41.08 10c.48 3.4 3.39 6 6.92 6-1.39 0-2.73.2-4 .58-1.86.56-3.55 1.48-5 2.7v.01c-.31.25-.61.52-.9.81-1.33 1.33-2.39 2.93-3.1 4.71v-10.81c0-2.21 1.79-4 4-4h2.07z" fill="#ccd1d9"/><path d="m57 10c2.21 0 4 1.79 4 4v10.81c-.86-2.17-2.25-4.06-4-5.52-1.45-1.23-3.14-2.15-5-2.71-1.27-.38-2.61-.58-4-.58 3.53 0 6.44-2.6 6.92-6h.01z" fill="#ccd1d9"/><path d="m52 16.58v1.42c0 1.01-.38 1.93-1 2.64-.05.07-.11.13-.17.19-.73.72-1.73 1.17-2.83 1.17-1.2 0-2.27-.53-3-1.36-.62-.71-1-1.63-1-2.64v-1.42c1.27-.38 2.61-.58 4-.58s2.73.2 4 .58z" fill="#f0d0b4"/><path d="m55 9c0 .34-.02.68-.08 1-.48 3.4-3.39 6-6.92 6s-6.44-2.6-6.92-6c-.06-.32-.08-.66-.08-1 0-3.87 3.13-7 7-7s7 3.13 7 7z" fill="#f0d0b4"/><path d="m27 25.101v-1.101c0-1.302-.839-2.402-2-2.816v-6.184h2c1.103 0 2-.897 2-2v-2c0-1.103-.897-2-2-2h-22c-1.103 0-2 .897-2 2v2c0 1.103.897 2 2 2h2v6.184c-1.161.414-2 1.514-2 2.816v1.101c-2.279.464-4 2.484-4 4.899v24c0 2.163 1.389 3.992 3.315 4.687-.195.398-.315.84-.315 1.313 0 1.654 1.346 3 3 3s3-1.346 3-3c0-.352-.072-.686-.184-1h12.369c-.113.314-.185.648-.185 1 0 1.654 1.346 3 3 3s3-1.346 3-3c0-.473-.12-.915-.315-1.313 1.926-.695 3.315-2.524 3.315-4.687v-24c0-2.415-1.721-4.435-4-4.899zm-4-4.101h-2v-6h2zm-4-6v6h-6v-6zm-14-4h22l.001 2h-22.001zm6 4v6h-2v-6zm-3 8h16c.551 0 1 .448 1 1v1h-18v-1c0-.552.449-1 1-1zm-2 4h1 18 1c1.654 0 3 1.346 3 3v23h-2v-11c0-1.654-1.346-3-3-3s-3 1.346-3 3v11h-2v-11c0-1.654-1.346-3-3-3s-3 1.346-3 3v11h-2v-11c0-1.654-1.346-3-3-3s-3 1.346-3 3v11h-2v-23c0-1.654 1.346-3 3-3zm19 26h-2v-11c0-.552.449-1 1-1s1 .448 1 1zm-8 0h-2v-11c0-.552.449-1 1-1s1 .448 1 1zm-8 0h-2v-11c0-.552.449-1 1-1s1 .448 1 1zm-1 7c0 .552-.449 1-1 1s-1-.448-1-1 .449-1 1-1 1 .448 1 1zm17 1c-.551 0-1-.448-1-1s.449-1 1-1 1 .448 1 1-.449 1-1 1zm1-4h-20c-1.302 0-2.402-.839-2.816-2h25.631c-.413 1.161-1.513 2-2.815 2z"/><path d="m8 37h16c1.654 0 3-1.346 3-3v-2c0-1.654-1.346-3-3-3h-16c-1.654 0-3 1.346-3 3v2c0 1.654 1.346 3 3 3zm-1-5c0-.552.449-1 1-1h16c.551 0 1 .448 1 1v2c0 .552-.449 1-1 1h-16c-.551 0-1-.448-1-1z"/><path d="m62 24.659v-10.659c0-2.757-2.243-5-5-5h-1c0-4.411-3.589-8-8-8s-8 3.589-8 8h-1c-2.757 0-5 2.243-5 5v10.659c-.636 1.662-1 3.458-1 5.341v6c0 2.757 2.243 5 5 5h1v17c0 2.757 2.243 5 5 5 1.641 0 3.088-.806 4-2.031.912 1.225 2.359 2.031 4 2.031 2.757 0 5-2.243 5-5v-17h1c2.757 0 5-2.243 5-5v-6c0-1.883-.364-3.679-1-5.341zm-5-13.659c1.654 0 3 1.346 3 3v7.038c-1.881-2.512-4.518-4.427-7.585-5.373 1.621-1.077 2.821-2.731 3.322-4.665zm-2 24h-14v-3h2c1.654 0 3-1.346 3-3v-6.424c.614.27 1.288.424 2 .424s1.386-.154 2-.424v6.424c0 1.654 1.346 3 3 3h2zm-12-16.997c.001 1.114.38 2.134 1 2.966v8.031c0 .552-.449 1-1 1h-2c-.551 0-1-.448-1-1v-9.226c.912-.715 1.916-1.318 3-1.771zm8-.64v.637c0 1.654-1.346 3-3 3s-3-1.346-3-3v-.637c.965-.229 1.966-.363 3-.363s2.035.134 3 .363zm5 11.637c0 .552-.449 1-1 1h-2c-.551 0-1-.448-1-1v-8.031c.619-.832.999-1.852 1-2.966 1.084.453 2.088 1.056 3 1.772zm-8-26c3.309 0 6 2.691 6 6s-2.691 6-6 6-6-2.691-6-6 2.691-6 6-6zm-12 11c0-1.654 1.346-3 3-3h1.263c.501 1.934 1.7 3.588 3.322 4.665-3.067.946-5.704 2.86-7.585 5.373zm2 25c-1.654 0-3-1.346-3-3v-6c0-3.151 1.128-6.042 3-8.295v7.295c0 .883.391 1.67 1 2.22v7.78zm6 22c-1.654 0-3-1.346-3-3v-21h6v21c0 1.654-1.346 3-3 3zm8 0c-1.654 0-3-1.346-3-3v-21h6v21c0 1.654-1.346 3-3 3zm9-25c0 1.654-1.346 3-3 3h-1v-7.78c.609-.549 1-1.337 1-2.22v-7.295c1.872 2.253 3 5.144 3 8.295z"/></svg>