<svg id="Layer_3" enable-background="new 0 0 64 64" height="512" viewBox="0 0 64 64" width="512" xmlns="http://www.w3.org/2000/svg"><path d="m28 38c-1.105 0-2-.895-2-2v-22c0-1.105.895-2 2-2h6v-5h-32v48h32v-17z" fill="#f0bc5e"/><path d="m63 36v-22c0-1.654-1.346-3-3-3h-25v-5c0-2.757-2.243-5-5-5h-24c-2.757 0-5 2.243-5 5v52c0 2.757 2.243 5 5 5h24c2.757 0 5-2.243 5-5v-19h8.104c-3.659 2.303-6.104 6.367-6.104 11 0 7.168 5.832 13 13 13s13-5.832 13-13c0-4.633-2.445-8.697-6.104-11h3.104c1.654 0 3-1.346 3-3zm-36-19h34v4h-34zm34-3v1h-34v-1c0-.552.448-1 1-1h32c.552 0 1 .448 1 1zm-28 44c0 1.654-1.346 3-3 3h-24c-1.654 0-3-1.346-3-3v-52c0-1.654 1.346-3 3-3h24c1.654 0 3 1.346 3 3v5h-5c-1.654 0-3 1.346-3 3v22c0 1.654 1.346 3 3 3h5zm28-8c0 6.065-4.935 11-11 11s-11-4.935-11-11 4.935-11 11-11 11 4.935 11 11zm-33-13c-.552 0-1-.448-1-1v-13h34v13c0 .552-.448 1-1 1z"/><path d="m15 57h6v2h-6z"/><path d="m55 27c-.706 0-1.393.197-2 .554-.607-.357-1.294-.554-2-.554-2.206 0-4 1.794-4 4s1.794 4 4 4c.706 0 1.393-.197 2-.554.607.357 1.294.554 2 .554 2.206 0 4-1.794 4-4s-1.794-4-4-4zm-3.493 5.932c-.165.045-.335.068-.507.068-1.103 0-2-.897-2-2s.897-2 2-2c.172 0 .342.023.507.068-.329.588-.507 1.252-.507 1.932s.178 1.344.507 1.932zm3.493.068c-.485 0-.957-.185-1.331-.521-.431-.39-.669-.915-.669-1.479s.238-1.089.669-1.479c.374-.336.846-.521 1.331-.521 1.103 0 2 .897 2 2s-.897 2-2 2z"/><path d="m29 29h2v2h-2z"/><path d="m35 29h2v2h-2z"/><path d="m41 29h2v2h-2z"/><path d="m29 33h14v2h-14z"/><path d="m50 55c-1.103 0-2-.897-2-2h-2c0 1.859 1.279 3.411 3 3.858v2.142h2v-2.142c1.721-.447 3-1.999 3-3.858 0-2.206-1.794-4-4-4-1.103 0-2-.897-2-2s.897-2 2-2 2 .897 2 2h2c0-1.859-1.279-3.411-3-3.858v-2.142h-2v2.142c-1.721.447-3 1.999-3 3.858 0 2.206 1.794 4 4 4 1.103 0 2 .897 2 2s-.897 2-2 2z"/><path d="m19 28c-2.206 0-4 1.794-4 4s1.794 4 4 4 4-1.794 4-4-1.794-4-4-4zm0 6c-1.103 0-2-.897-2-2s.897-2 2-2 2 .897 2 2-.897 2-2 2z"/><path d="m19 26v-2c-4.411 0-8 3.589-8 8s3.589 8 8 8v-2c-3.309 0-6-2.691-6-6s2.691-6 6-6z"/><path d="m19 42c-5.514 0-10-4.486-10-10s4.486-10 10-10v-2c-6.617 0-12 5.383-12 12s5.383 12 12 12z"/><path d="m57 49h2v2h-2z"/><path d="m41 49h2v2h-2z"/></svg>