<svg id="Layer_35" enable-background="new 0 0 64 64" height="512" viewBox="0 0 64 64" width="512" xmlns="http://www.w3.org/2000/svg"><path d="m8 33h-1c-2.76 0-5-2.24-5-5 0-1.38.56-2.63 1.46-3.54.91-.9 2.16-1.46 3.54-1.46h2c2.76 0 5 2.24 5 5v10 6h-6z" fill="#b27946"/><path d="m18 16h4v22h-4z" fill="#ccd1d9"/><path d="m28.68 5.16 2.32 10.84h-3-6-4-9l2.32-10.84c.4-1.84 2.03-3.16 3.91-3.16h9.54c1.88 0 3.51 1.32 3.91 3.16z" fill="#ff826e"/><path d="m28 24c1.1 0 2 .9 2 2s-.9 4-2 4-2-2.9-2-4 .9-2 2-2z" fill="#ff826e"/><path d="m28 40v4h-14v-6h4 4 4c1.1 0 2 .9 2 2z" fill="#fcd770"/><circle cx="45" cy="14" fill="#e6e9ed" r="7"/><path d="m8 44h54v18h-54z" fill="#d3a06c"/><path d="m45.73 38.27c.45.45 1.08.73 1.77.73h4.48c1.35.75 2.47 1.91 3.19 3.34.27.53.47 1.08.61 1.66.15.6.22 1.22.22 1.85v12.96c0 .88-.36 1.68-.94 2.25-.57.58-1.37.94-2.25.94-1.6 0-2.95-1.2-3.14-2.79l-1.32-11.23c-.1-.85-.51-1.6-1.11-2.13s-1.38-.85-2.24-.85c-1.71 0-3.15 1.28-3.35 2.98l-1.32 11.23c-.09.79-.48 1.49-1.04 1.99s-1.3.8-2.1.8c-1.76 0-3.19-1.43-3.19-3.19v-12.96c0-.63.07-1.25.22-1.85.14-.58.34-1.13.61-1.66.72-1.43 1.84-2.59 3.19-3.34h4.48c.69 0 1.32-.28 1.77-.73s.73-1.08.73-1.77c0 .69.28 1.32.73 1.77z" fill="#e6e9ed"/><path d="m58 33v3.5c0 1.38-1.12 2.5-2.5 2.5h-3.52-4.48c-.69 0-1.32-.28-1.77-.73s-.73-1.08-.73-1.77c0 .69-.28 1.32-.73 1.77s-1.08.73-1.77.73h-4.48-3.52c-1.38 0-2.5-1.12-2.5-2.5v-3.5c0-6.63 5.37-12 12-12h1 1c6.63 0 12 5.37 12 12z" fill="#e6e9ed"/><path d="m56.518 43c-.128-.378-.274-.749-.452-1.105-.348-.695-.794-1.322-1.3-1.895h.734c1.93 0 3.5-1.57 3.5-3.5v-3.5c0-5.913-3.971-10.906-9.384-12.478 2.044-1.451 3.384-3.831 3.384-6.522 0-4.411-3.589-8-8-8s-8 3.589-8 8c0 2.691 1.34 5.071 3.384 6.522-5.413 1.572-9.384 6.565-9.384 12.478v3.5c0 1.93 1.57 3.5 3.5 3.5h.735c-.506.573-.952 1.2-1.3 1.895-.178.357-.324.728-.452 1.105h-4.483v-3c0-1.654-1.346-3-3-3h-3v-20h4v6.184c-1.161.414-2 1.514-2 2.816 0 1.165.936 5 3 5s3-3.835 3-5c0-1.302-.839-2.402-2-2.816v-6.184h3.237l-2.582-12.047c-.491-2.291-2.547-3.953-4.888-3.953h-9.533c-2.342 0-4.397 1.662-4.889 3.953l-2.582 12.047h9.237v20h-2v-9c0-3.309-2.691-6-6-6h-2c-3.309 0-6 2.691-6 6s2.691 6 6 6v29h56v-20zm-28.518-14.084c-.429-.479-1-2.09-1-2.916 0-.551.448-1 1-1s1 .449 1 1c0 .826-.571 2.436-1 2.916zm11-14.916c0-3.309 2.691-6 6-6s6 2.691 6 6-2.691 6-6 6-6-2.691-6-6zm-6 22.5v-3.5c0-6.065 4.935-11 11-11h1 1c6.065 0 11 4.935 11 11v3.5c0 .827-.673 1.5-1.5 1.5h-8c-.827 0-1.5-.673-1.5-1.5s.673-1.5 1.5-1.5h7.5v-2h-7.5c-.98 0-1.864.407-2.5 1.058-.636-.651-1.52-1.058-2.5-1.058h-7.5v2h7.5c.827 0 1.5.673 1.5 1.5s-.673 1.5-1.5 1.5h-8c-.827 0-1.5-.673-1.5-1.5zm2 9.354c0-1.058.25-2.118.724-3.065.582-1.165 1.481-2.118 2.591-2.789h4.185c.98 0 1.864-.407 2.5-1.058.636.651 1.52 1.058 2.5 1.058h4.185c1.11.672 2.009 1.625 2.591 2.789.474.947.724 2.007.724 3.065v12.959c0 1.206-.98 2.187-2.187 2.187-1.098 0-2.021-.821-2.149-1.911l-1.32-11.227c-.26-2.201-2.127-3.862-4.344-3.862s-4.084 1.661-4.344 3.863l-1.32 11.227c-.128 1.089-1.052 1.91-2.149 1.91-1.207 0-2.187-.981-2.187-2.187zm14.273 15.146h-8.546c.306-.5.523-1.062.595-1.677l1.32-11.226c.141-1.196 1.155-2.097 2.358-2.097s2.217.901 2.357 2.096l1.32 11.227c.073.615.29 1.177.596 1.677zm-36.973-55.628c.295-1.374 1.528-2.372 2.933-2.372h9.533c1.405 0 2.639.998 2.934 2.372l2.063 9.628h-19.526zm6.7 11.628h2v20h-2zm7 22c.552 0 1 .449 1 1v3h-12v-4zm-23-11c0-2.206 1.794-4 4-4h2c2.206 0 4 1.794 4 4v15h-4v-15h-2v4c-2.206 0-4-1.794-4-4zm6 17h24.05c-.028.284-.05.569-.05.854v12.959c0 .804.239 1.549.633 2.187h-24.633zm52 16h-4.633c.394-.638.633-1.383.633-2.187v-12.959c0-.285-.022-.57-.05-.854h4.05z"/></svg>