<svg id="Layer_35" enable-background="new 0 0 64 64" height="512" viewBox="0 0 64 64" width="512" xmlns="http://www.w3.org/2000/svg"><path d="m58 52h-52c-2.209 0-4-1.791-4-4v-4h60v4c0 2.209-1.791 4-4 4z" fill="#f0bc5e"/><path d="m58 11h-16.01v2h16.01c1.654 0 3 1.346 3 3v32c0 1.654-1.346 3-3 3h-52c-1.654 0-3-1.346-3-3v-32c0-1.654 1.346-3 3-3h16.01v-2h-16.01c-2.757 0-5 2.243-5 5v32c0 2.757 2.243 5 5 5h16.612l-1.333 4h-5.279c-1.103 0-2 .897-2 2v2c0 1.103.897 2 2 2h32c1.103 0 2-.897 2-2v-2c0-1.103-.897-2-2-2h-5.279l-1.333-4h16.612c2.757 0 5-2.243 5-5v-32c0-2.757-2.243-5-5-5zm-9.999 50h-32.001v-2h32zm-7.389-4h-17.224l1.333-4h14.558z"/><path d="m29 47h6v2h-6z"/><path d="m37 47h2v2h-2z"/><path d="m25 47h2v2h-2z"/><path d="m7 44h-2v-27c0-1.103.897-2 2-2h16.081v2h-16.081z"/><path d="m59 44h-2v-27h-16.081v-2h16.081c1.103 0 2 .897 2 2z"/><path d="m32 27c-.937 0-1.814-.416-2.407-1.142l-6.201-7.579c-1.542-1.883-2.392-4.262-2.392-6.699 0-5.834 4.746-10.58 10.58-10.58h.84c5.834 0 10.58 4.746 10.58 10.58 0 2.437-.85 4.815-2.392 6.7l-6.201 7.578c-.593.726-1.47 1.142-2.407 1.142z" fill="#f0bc5e"/><path d="m33.569 17.164-1.569-1.182-1.569 1.182-.548-.262c-.605-.289-1.143-.695-1.598-1.208l-.376-.423.601-1.918-1.567-1.181.063-.566c.077-.695.325-1.494.646-2.085l.286-.525 1.915.009.588-1.784.567-.117c.667-.137 1.316-.137 1.983 0l.563.116.601 1.787 1.8-.014.287.527c.434.799.686 1.5.751 2.086l.063.566-1.567 1.181.601 1.918-.376.423c-.455.513-.993.919-1.598 1.208zm-1.569-3.685 1.751 1.319c.026-.02.051-.039.077-.06l-.668-2.133 1.713-1.291c-.036-.099-.078-.203-.126-.312l-2.025.016-.679-2.018c-.028 0-.055 0-.083 0l-.663 2.011-2.111-.009c-.032.095-.062.192-.088.29l1.743 1.313-.668 2.133c.025.021.051.04.077.06z"/><path d="m43 27.18v-2.18h-22v4.18l-10 2.001v12.819h2v-11.181l8-1.599v3.78h-6v9h2v-7h4v7h2v-17h18v17h2v-11h4v11h2v-13h-6v-1.78l8 1.599v13.181h2v-14.819z"/><path d="m34 33h-4c-1.654 0-3 1.346-3 3v8h2v-8c0-.552.449-1 1-1h4c.551 0 1 .448 1 1v8h2v-8c0-1.654-1.346-3-3-3z"/><path d="m25 29h2v2h-2z"/><path d="m31 29h2v2h-2z"/><path d="m37 29h2v2h-2z"/><path d="m9 19h2v2h-2z"/><path d="m13 19h8v2h-8z"/><path d="m9 23h10v2h-10z"/><path d="m9 27h10v2h-10z"/><path d="m43 19h2v2h-2z"/><path d="m47 19h8v2h-8z"/><path d="m47 23h8v2h-8z"/></svg>